<svg width="1200" height="630" viewBox="0 0 1200 630" fill="none" xmlns="http://www.w3.org/2000/svg">
  <rect width="1200" height="630" fill="#2E3A2A"/>
  <rect width="1200" height="630" fill="url(#glow)"/>
  <!-- ambient network -->
  <g stroke="#3F4C39" stroke-width="1.5" opacity="0.8">
    <path d="M0 470 H1200 M0 540 H1200"/>
    <path d="M150 120 L320 250 L150 380 M320 250 L520 200" stroke="#A2854F" opacity="0.35"/>
  </g>
  <g fill="#A2854F" opacity="0.55">
    <circle cx="320" cy="250" r="6"/><circle cx="150" cy="120" r="5"/><circle cx="150" cy="380" r="5"/><circle cx="520" cy="200" r="5"/>
  </g>
  <!-- brand -->
  <g transform="translate(90 86)">
    <rect width="56" height="56" rx="13" fill="#283325" stroke="#3F4C39"/>
    <g stroke="#A2854F" stroke-width="2.2" stroke-linecap="round" fill="none" transform="translate(0 0)">
      <path d="M28 37 V26 M28 26 L19 18 M28 26 L37 18 M28 37 L21 44 M28 37 L35 44"/>
    </g>
    <circle cx="28" cy="26" r="4" fill="#A2854F"/>
    <text x="74" y="26" fill="#EFECE2" font-family="Georgia, serif" font-size="26" font-weight="600">HK Growth</text>
    <text x="74" y="46" fill="#BB9C68" font-family="ui-monospace, monospace" font-size="12" letter-spacing="3">AI-FIRST GROWTH SYSTEMS</text>
  </g>
  <!-- headline -->
  <text x="90" y="330" fill="#EFECE2" font-family="Georgia, serif" font-size="62" font-weight="500">Digitale Wachstumssysteme</text>
  <text x="90" y="408" fill="#EFECE2" font-family="Georgia, serif" font-size="62" font-weight="500">für Unternehmen, die <tspan fill="#BB9C68" font-style="italic">mehr wollen</tspan></text>
  <text x="90" y="486" fill="#EFECE2" font-family="Georgia, serif" font-size="62" font-weight="500">als eine schöne Website.</text>
  <!-- footer line -->
  <text x="90" y="566" fill="#B9BFA9" font-family="ui-sans-serif, system-ui, sans-serif" font-size="22">Positionierung · Premium-Auftritt · Conversion · Content · KI-gestützte Prozesse</text>
  <defs>
    <radialGradient id="glow" cx="0.82" cy="0.12" r="0.7">
      <stop offset="0" stop-color="#A2854F" stop-opacity="0.28"/>
      <stop offset="0.6" stop-color="#A2854F" stop-opacity="0"/>
    </radialGradient>
  </defs>
</svg>
